<svg version="1.1" viewBox="0.0 0.0 304.3333333333333 100.46719160104986" fill="none" stroke="none" stroke-linecap="square" stroke-miterlimit="10" xmlns:xlink="http://www.w3.org/1999/xlink" xmlns="http://www.w3.org/2000/svg"><clipPath id="p.0"><path d="m0 0l304.33334 0l0 100.46719l-304.33334 0l0 -100.46719z" clip-rule="nonzero"/></clipPath><g clip-path="url(#p.0)"><path fill="#000000" fill-opacity="0.0" d="m0 0l304.33334 0l0 100.46719l-304.33334 0z" fill-rule="evenodd"/><path fill="#2196f3" d="m0 50.47396l108.89004 0l0 15.498642l-108.89004 0z" fill-rule="evenodd"/><path fill="#2196f3" d="m70.033226 99.961876l0 -86.97682l15.557198 0l0 86.97682z" fill-rule="evenodd"/><path fill="#2196f3" d="m46.730167 99.961876l0 -73.98079l15.557198 0l0 73.98079z" fill-rule="evenodd"/><path fill="#2196f3" d="m23.427105 99.961876l0 -62.477547l15.557198 0l0 62.477547z" fill-rule="evenodd"/><path fill="#2196f3" d="m93.33629 99.961876l0 -99.961876l15.557198 0l0 99.961876z" fill-rule="evenodd"/><path fill="#2196f3" d="m0.1240441 99.961876l0 -53.981827l15.557197 0l0 53.981827z" fill-rule="evenodd"/><path fill="#000000" fill-opacity="0.0" d="m108.89239 6.4015746l209.5433 0l0 70.551186l-209.5433 0z" fill-rule="evenodd"/><path fill="#2196f3" d="m131.0739 71.72157l0 -41.703125l14.609375 0q7.59375 0 11.515625 2.906248q3.921875 2.90625 3.921875 8.53125q0 3.0625 -1.578125 5.390625q-1.578125 2.328125 -4.375 3.421875q3.203125 0.796875 5.046875 3.234375q1.859375 2.4375 1.859375 5.953125q0 6.015625 -3.84375 9.109375q-3.84375 3.09375 -10.9375 3.15625l-16.21875 0zm8.59375 -18.15625l0 11.25l7.359375 0q3.046875 0 4.75 -1.4375q1.703125 -1.453125 1.703125 -4.0q0 -5.734375 -5.9375 -5.8125l-7.875 0zm0 -6.078125l6.359375 0q6.5 -0.109375 6.5 -5.171875q0 -2.84375 -1.65625 -4.078125q-1.640625 -1.25 -5.1875 -1.25l-6.015625 0l0 10.5zm45.714706 1.0q-1.6875 -0.21875 -2.984375 -0.21875q-4.6875 0 -6.15625 3.171875l0 20.28125l-8.28125 0l0 -30.984375l7.828125 0l0.234375 3.6875q2.484375 -4.265625 6.890625 -4.265625q1.375 0 2.578125 0.375l-0.109375 7.953125zm12.722763 23.234375l-8.3125 0l0 -30.984375l8.3125 0l0 30.984375zm-8.796875 -39.015625q0 -1.8593731 1.234375 -3.062498q1.25 -1.203125 3.40625 -1.203125q2.109375 0 3.375 1.203125q1.265625 1.203125 1.265625 3.062498q0 1.890625 -1.28125 3.09375q-1.265625 1.203125 -3.359375 1.203125q-2.09375 0 -3.375 -1.203125q-1.265625 -1.203125 -1.265625 -3.09375zm14.317551 23.296875q0 -7.25 3.25 -11.546875q3.25 -4.296875 8.890625 -4.296875q4.53125 0 7.484375 3.375l0 -15.812498l8.296875 0l0 44.0l-7.46875 0l-0.40625 -3.296875q-3.09375 3.875 -7.953125 3.875q-5.484375 0 -8.796875 -4.3125q-3.296875 -4.3125 -3.296875 -11.984375zm8.28125 0.59375q0 4.359375 1.515625 6.6875q1.515625 2.3125 4.40625 2.3125q3.84375 0 5.421875 -3.234375l0 -12.234375q-1.546875 -3.234375 -5.359375 -3.234375q-5.984375 0 -5.984375 9.703125zm24.848297 -0.59375q0 -7.140625 3.390625 -11.484375q3.40625 -4.359375 9.15625 -4.359375q5.109375 0 7.9375 3.5l0.34375 -2.921875l7.5 0l0 29.953125q0 4.0625 -1.84375 7.0625q-1.84375 3.015625 -5.203125 4.59375q-3.34375 1.578125 -7.84375 1.578125q-3.40625 0 -6.640625 -1.359375q-3.234375 -1.359375 -4.90625 -3.515625l3.671875 -5.03125q3.09375 3.453125 7.5 3.453125q3.296875 0 5.125 -1.765625q1.84375 -1.75 1.84375 -4.984375l0 -1.65625q-2.875 3.234375 -7.53125 3.234375q-5.59375 0 -9.046875 -4.359375q-3.453125 -4.375 -3.453125 -11.59375l0 -0.34375zm8.28125 0.59375q0 4.21875 1.6875 6.609375q1.703125 2.390625 4.640625 2.390625q3.78125 0 5.421875 -2.84375l0 -13.03125q-1.671875 -2.828125 -5.359375 -2.828125q-2.984375 0 -4.6875 2.4375q-1.703125 2.421875 -1.703125 7.265625zm40.66855 15.703125q-6.8125 0 -11.09375 -4.1875q-4.28125 -4.1875 -4.28125 -11.140625l0 -0.796875q0 -4.671875 1.796875 -8.34375q1.8125 -3.6875 5.109375 -5.671875q3.3125 -2.0 7.5625 -2.0q6.359375 0 10.0 4.015625q3.65625 4.0 3.65625 11.359375l0 3.390625l-19.734375 0q0.40625 3.03125 2.421875 4.875q2.015625 1.828125 5.109375 1.828125q4.78125 0 7.484375 -3.46875l4.0625 4.546875q-1.859375 2.640625 -5.046875 4.125q-3.171875 1.46875 -7.046875 1.46875zm-0.9375 -25.4375q-2.46875 0 -4.0 1.671875q-1.53125 1.65625 -1.953125 4.75l11.5 0l0 -0.671875q-0.046875 -2.75 -1.484375 -4.25q-1.4375 -1.5 -4.0625 -1.5z" fill-rule="nonzero"/></g></svg>