<svg version="1.1" viewBox="0.0 0.0 331.6404199475066 287.9265091863517" fill="none" stroke="none" stroke-linecap="square" stroke-miterlimit="10" xmlns:xlink="http://www.w3.org/1999/xlink" xmlns="http://www.w3.org/2000/svg"><clipPath id="p.0"><path d="m0 0l331.6404 0l0 287.9265l-331.6404 0l0 -287.9265z" clip-rule="nonzero"/></clipPath><g clip-path="url(#p.0)"><path fill="#000000" fill-opacity="0.0" d="m0 0l331.6404 0l0 287.9265l-331.6404 0z" fill-rule="evenodd"/><path fill="#ffffff" d="m0.47900262 144.83202l331.77954 0l0 44.472443l-331.77954 0z" fill-rule="evenodd"/><path fill="#ffffff" d="m213.86482 286.83466l0 -249.57481l47.401596 0l0 249.57481z" fill-rule="evenodd"/><path fill="#ffffff" d="m142.8622 286.83466l0 -212.28348l47.40158 0l0 212.28348z" fill-rule="evenodd"/><path fill="#ffffff" d="m71.85958 286.83466l0 -179.2756l47.401573 0l0 179.2756z" fill-rule="evenodd"/><path fill="#ffffff" d="m284.86746 286.83466l0 -286.83466l47.40158 0l0 286.83466z" fill-rule="evenodd"/><path fill="#ffffff" d="m0.8569554 286.83466l0 -154.89764l47.401573 0l0 154.89764z" fill-rule="evenodd"/></g></svg>